<svg width="40" height="40" viewBox="0 0 40 40" fill="none" xmlns="http://www.w3.org/2000/svg">
<path d="M28.2097 10.3233L20.001 18.5328L11.7924 10.3233C11.5949 10.1426 11.3354 10.0451 11.0679 10.051C10.8003 10.0569 10.5454 10.1659 10.3561 10.3551C10.1669 10.5444 10.058 10.7993 10.052 11.0669C10.0461 11.3345 10.1436 11.5941 10.3243 11.7915L18.5288 20.001L10.3222 28.2085C10.222 28.3041 10.1418 28.4187 10.0865 28.5457C10.0312 28.6727 10.0018 28.8094 10.0001 28.9479C9.99836 29.0864 10.0244 29.2239 10.0765 29.3522C10.1287 29.4805 10.206 29.5971 10.3038 29.6951C10.4017 29.7931 10.5182 29.8706 10.6464 29.9229C10.7746 29.9753 10.912 30.0015 11.0505 29.9999C11.189 29.9984 11.3258 29.9692 11.4528 29.9141C11.5799 29.8589 11.6946 29.7789 11.7903 29.6788L20.001 21.4713L28.2097 29.6809C28.4071 29.8616 28.6667 29.9591 28.9342 29.9532C29.2018 29.9472 29.4567 29.8383 29.6459 29.6491C29.8352 29.4598 29.9441 29.2048 29.95 28.9372C29.956 28.6697 29.8584 28.4101 29.6778 28.2127L21.4691 20.0031L29.6778 11.7915C29.778 11.6959 29.8582 11.5813 29.9135 11.4543C29.9688 11.3273 29.9982 11.1906 29.9999 11.0521C30.0016 10.9136 29.9756 10.7761 29.9235 10.6478C29.8713 10.5195 29.794 10.4029 29.6962 10.3049C29.5983 10.2069 29.4818 10.1294 29.3536 10.0771C29.2254 10.0247 29.088 9.99854 28.9495 10.0001C28.811 10.0016 28.6742 10.0308 28.5472 10.0859C28.4201 10.1411 28.3054 10.2211 28.2097 10.3212V10.3233Z" fill="white"/>
</svg>
