<svg width="57" height="56" viewBox="0 0 57 56" fill="none" xmlns="http://www.w3.org/2000/svg">
<path d="M23.2498 48.65C27.4031 47.0167 26.4931 42.5134 24.3931 39.6667C22.3164 36.75 19.4464 34.7434 16.5531 32.8067C14.4887 31.5055 12.6455 29.8829 11.0931 28C10.4398 27.23 9.10978 25.8067 10.4631 25.5267C11.8398 25.2467 14.2198 26.6 15.4331 27.1134C17.5564 28 19.6564 29.0267 21.6164 30.24L23.9731 26.2734C20.3331 23.87 15.6664 21.7467 11.3264 21.1167C8.85311 20.7434 6.23978 21.2567 5.39978 23.94C4.65311 26.25 5.84311 28.5834 7.19644 30.4034C10.3931 34.6734 15.3631 36.7267 19.0731 40.4134C19.8664 41.1834 20.8231 42.0934 21.2898 43.1667C21.7798 44.1934 21.6631 44.2634 20.5664 44.2634C17.6731 44.2634 14.0564 42 11.6998 40.5067L9.34311 44.4734C12.9131 46.6667 18.8864 50.0967 23.2498 48.65ZM49.1264 12.25C49.6398 11.7367 49.6398 10.8967 49.1264 10.4067L46.0931 7.37337C45.8487 7.13783 45.5225 7.00623 45.1831 7.00623C44.8437 7.00623 44.5175 7.13783 44.2731 7.37337L41.8931 9.75337L46.7464 14.6067L49.1264 12.25ZM26.1664 25.48V30.3334H31.0198L45.3698 15.9834L40.5164 11.13L26.1664 25.48Z" fill="#2091F9"/>
</svg>
