<svg width="33" height="34" viewBox="0 0 33 34" fill="none" xmlns="http://www.w3.org/2000/svg">
<path d="M30.7505 0.989746H1.29139C0.58293 0.989746 0.0105591 1.56212 0.0105591 2.27058V31.7297C0.0105591 32.4382 0.58293 33.0105 1.29139 33.0105H30.7505C31.459 33.0105 32.0313 32.4382 32.0313 31.7297V2.27058C32.0313 1.56212 31.459 0.989746 30.7505 0.989746ZM27.0521 10.3358H24.4944C22.4891 10.3358 22.1009 11.2884 22.1009 12.6893V15.7753H26.888L26.2636 20.6065H22.1009V33.0105H17.1097V20.6105H12.9349V15.7753H17.1097V12.213C17.1097 8.07835 19.6353 5.82488 23.3257 5.82488C25.0948 5.82488 26.6118 5.95697 27.0561 6.01701V10.3358H27.0521Z" fill="white"/>
</svg>
