<svg width="42" height="42" viewBox="0 0 42 42" fill="none" xmlns="http://www.w3.org/2000/svg">
<path d="M35.7103 5.38544H6.25121C5.54275 5.38544 4.97038 5.95781 4.97038 6.66627V36.1254C4.97038 36.8338 5.54275 37.4062 6.25121 37.4062H35.7103C36.4188 37.4062 36.9912 36.8338 36.9912 36.1254V6.66627C36.9912 5.95781 36.4188 5.38544 35.7103 5.38544ZM32.0119 14.7315H29.4543C27.449 14.7315 27.0607 15.6841 27.0607 17.085V20.171H31.8478L31.2234 25.0022H27.0607V37.4062H22.0695V25.0062H17.8948V20.171H22.0695V16.6087C22.0695 12.474 24.5951 10.2206 28.2855 10.2206C30.0547 10.2206 31.5716 10.3527 32.0159 10.4127V14.7315H32.0119Z" fill="#2091F9"/>
</svg>
