<svg width="42" height="42" viewBox="0 0 42 42" fill="none" xmlns="http://www.w3.org/2000/svg">
<path d="M35.6981 5.38544H6.23899C5.53053 5.38544 4.95816 5.95781 4.95816 6.66627V36.1254C4.95816 36.8338 5.53053 37.4062 6.23899 37.4062H35.6981C36.4066 37.4062 36.9789 36.8338 36.9789 36.1254V6.66627C36.9789 5.95781 36.4066 5.38544 35.6981 5.38544ZM14.4563 32.6711H9.70524V17.3892H14.4563V32.6711ZM12.0828 15.2999C11.5381 15.2999 11.0057 15.1384 10.5529 14.8358C10.1 14.5332 9.74704 14.1031 9.53862 13.5999C9.33019 13.0967 9.27565 12.543 9.38191 12.0088C9.48817 11.4747 9.75044 10.984 10.1356 10.5989C10.5207 10.2137 11.0114 9.95147 11.5455 9.84521C12.0797 9.73895 12.6334 9.79349 13.1366 10.0019C13.6398 10.2103 14.0699 10.5633 14.3725 11.0162C14.6751 11.469 14.8366 12.0014 14.8366 12.5461C14.8326 14.0671 13.5998 15.2999 12.0828 15.2999ZM32.2439 32.6711H27.4968V25.2383C27.4968 23.4652 27.4648 21.1877 25.0272 21.1877C22.5576 21.1877 22.1773 23.1169 22.1773 25.1102V32.6711H17.4343V17.3892H21.9892V19.4786H22.0533C22.6857 18.2778 24.2347 17.009 26.5482 17.009C31.3593 17.009 32.2439 20.175 32.2439 24.2897V32.6711Z" fill="#2091F9"/>
</svg>
