<svg width="34" height="34" viewBox="0 0 34 34" fill="none" xmlns="http://www.w3.org/2000/svg">
<path d="M31.7384 0.989746H2.27924C1.57078 0.989746 0.998413 1.56212 0.998413 2.27058V31.7297C0.998413 32.4382 1.57078 33.0105 2.27924 33.0105H31.7384C32.4468 33.0105 33.0192 32.4382 33.0192 31.7297V2.27058C33.0192 1.56212 32.4468 0.989746 31.7384 0.989746ZM10.4966 28.2755H5.74549V12.9935H10.4966V28.2755ZM8.12304 10.9042C7.57839 10.9042 7.04597 10.7427 6.59311 10.4401C6.14026 10.1375 5.7873 9.70741 5.57887 9.20422C5.37044 8.70103 5.31591 8.14734 5.42216 7.61316C5.52842 7.07897 5.79069 6.58829 6.17582 6.20317C6.56094 5.81805 7.05162 5.55577 7.5858 5.44952C8.11998 5.34326 8.67368 5.3978 9.17686 5.60623C9.68005 5.81465 10.1101 6.16761 10.4127 6.62047C10.7153 7.07333 10.8768 7.60574 10.8768 8.15039C10.8728 9.67138 9.64002 10.9042 8.12304 10.9042ZM28.2841 28.2755H23.537V20.8426C23.537 19.0695 23.505 16.792 21.0674 16.792C18.5978 16.792 18.2176 18.7213 18.2176 20.7145V28.2755H13.4745V12.9935H18.0295V15.0829H18.0935C18.7259 13.8821 20.2749 12.6133 22.5884 12.6133C27.3995 12.6133 28.2841 15.7793 28.2841 19.894V28.2755Z" fill="white"/>
</svg>
