<svg width="26" height="33" viewBox="0 0 26 33" fill="none" xmlns="http://www.w3.org/2000/svg">
<g clip-path="url(#clip0_1_299)">
<path d="M12.9998 19.884C16.4927 19.884 19.3332 17.0435 19.3332 13.5507C19.3332 10.0578 16.4927 7.21735 12.9998 7.21735C9.507 7.21735 6.6665 10.0578 6.6665 13.5507C6.6665 17.0435 9.507 19.884 12.9998 19.884ZM12.9998 10.384C14.7463 10.384 16.1665 11.8043 16.1665 13.5507C16.1665 15.2971 14.7463 16.7173 12.9998 16.7173C11.2534 16.7173 9.83317 15.2971 9.83317 13.5507C9.83317 11.8043 11.2534 10.384 12.9998 10.384Z" fill="#2091F9"/>
<path d="M11.7487 32.2562C12.0166 32.4476 12.3377 32.5504 12.667 32.5504C12.9963 32.5504 13.3173 32.4476 13.5853 32.2562C14.0667 31.9158 25.3796 23.7474 25.3337 13.5507C25.3337 6.5666 19.6511 0.884018 12.667 0.884018C5.68291 0.884018 0.000322499 6.5666 0.000322499 13.5428C-0.0455942 23.7474 11.2673 31.9158 11.7487 32.2562ZM12.667 4.05068C17.9062 4.05068 22.167 8.31143 22.167 13.5586C22.2002 20.5854 15.2193 26.895 12.667 28.9644C10.1162 26.8934 3.13374 20.5823 3.16699 13.5507C3.16699 8.31143 7.42774 4.05068 12.667 4.05068Z" fill="#2091F9"/>
</g>
<defs>
<clipPath id="clip0_1_299">
<rect width="26" height="32" fill="white" transform="translate(0 0.717346)"/>
</clipPath>
</defs>
</svg>
