<svg width="28" height="23" viewBox="0 0 28 23" fill="none" xmlns="http://www.w3.org/2000/svg">
<g clip-path="url(#clip0_1_311)">
<path d="M25.8125 0.904846H1.4375C0.918945 0.904846 0.5 1.32379 0.5 1.84235V20.5923C0.5 21.1109 0.918945 21.5298 1.4375 21.5298H25.8125C26.3311 21.5298 26.75 21.1109 26.75 20.5923V1.84235C26.75 1.32379 26.3311 0.904846 25.8125 0.904846ZM24.6406 4.15094V19.4205H2.60938V4.15094L1.80078 3.52106L2.95215 2.04157L4.20605 3.01715H23.0469L24.3008 2.04157L25.4521 3.52106L24.6406 4.15094ZM23.0469 3.01422L13.625 10.3384L4.20312 3.01422L2.94922 2.03864L1.79785 3.51813L2.60645 4.14801L12.6143 11.9293C12.9021 12.1529 13.2561 12.2742 13.6206 12.2742C13.9851 12.2742 14.3391 12.1529 14.627 11.9293L24.6406 4.15094L25.4492 3.52106L24.2979 2.04157L23.0469 3.01422Z" fill="#2091F9"/>
</g>
<defs>
<clipPath id="clip0_1_311">
<rect width="27" height="22" fill="white" transform="translate(0.5 0.217346)"/>
</clipPath>
</defs>
</svg>
