<svg width="42" height="42" viewBox="0 0 42 42" fill="none" xmlns="http://www.w3.org/2000/svg">
<path d="M37.6449 11.0812C36.4201 11.6095 35.0873 11.9898 33.7144 12.1379C35.1398 11.291 36.2072 9.95323 36.7163 8.37541C35.3788 9.17108 33.9135 9.72902 32.3855 10.0245C31.7469 9.34174 30.9745 8.79785 30.1165 8.42667C29.2584 8.0555 28.3332 7.86502 27.3983 7.86708C23.6158 7.86708 20.5739 10.9331 20.5739 14.6955C20.5739 15.2239 20.6379 15.7522 20.742 16.2605C15.0783 15.9643 10.027 13.2586 6.66884 9.11589C6.05694 10.161 5.73629 11.351 5.74023 12.5621C5.74023 14.9317 6.94502 17.021 8.78221 18.2498C7.69952 18.2072 6.64219 17.9096 5.69621 17.3813V17.4653C5.69621 20.7835 8.04173 23.5332 11.1678 24.1657C10.5808 24.3181 9.97701 24.3961 9.37059 24.3978C8.9263 24.3978 8.50603 24.3538 8.08175 24.2937C8.94631 26.9995 11.4639 28.9648 14.4619 29.0288C12.1164 30.866 9.17846 31.9467 5.98839 31.9467C5.41602 31.9467 4.88768 31.9267 4.33932 31.8627C7.36529 33.8039 10.9556 34.9246 14.8221 34.9246C27.3743 34.9246 34.2427 24.5259 34.2427 15.5C34.2427 15.2038 34.2427 14.9077 34.2227 14.6115C35.5516 13.6388 36.7163 12.434 37.6449 11.0812Z" fill="#2091F9"/>
</svg>
