<svg width="34" height="28" viewBox="0 0 34 28" fill="none" xmlns="http://www.w3.org/2000/svg">
<path d="M33.6852 3.68554C32.4604 4.21388 31.1275 4.59413 29.7546 4.74222C31.18 3.89542 32.2474 2.5576 32.7566 0.979782C31.419 1.77545 29.9538 2.33339 28.4258 2.62885C27.7871 1.94611 27.0147 1.40222 26.1567 1.03105C25.2987 0.659875 24.3734 0.469387 23.4385 0.471452C19.6561 0.471452 16.6141 3.53744 16.6141 7.29988C16.6141 7.82823 16.6782 8.35657 16.7822 8.8649C11.1185 8.56871 6.06727 5.86295 2.70909 1.72026C2.09719 2.7654 1.77654 3.95542 1.78049 5.1665C1.78049 7.53604 2.98527 9.62539 4.82246 10.8542C3.73978 10.8116 2.68244 10.514 1.73646 9.98563V10.0697C1.73646 13.3878 4.08198 16.1376 7.20801 16.77C6.62106 16.9225 6.01726 17.0005 5.41084 17.0022C4.96655 17.0022 4.54628 16.9582 4.12201 16.8981C4.98657 19.6039 7.5042 21.5691 10.5021 21.6332C8.15662 23.4704 5.21872 24.5511 2.02865 24.5511C1.45628 24.5511 0.927933 24.5311 0.379578 24.467C3.40554 26.4083 6.99587 27.529 10.8624 27.529C23.4145 27.529 30.283 17.1303 30.283 8.10441C30.283 7.80821 30.283 7.51202 30.263 7.21583C31.5918 6.2432 32.7566 5.03842 33.6852 3.68554Z" fill="white"/>
</svg>
